<svg width="140" height="23" viewBox="0 0 140 23" fill="none" xmlns="http://www.w3.org/2000/svg">
<path fill-rule="evenodd" clip-rule="evenodd" d="M61.855 7.11402C62.981 7.11403 64.0157 7.33518 64.9591 7.77729C65.9127 8.2194 66.7294 8.83737 67.4091 9.63117C68.0989 10.4249 68.6161 11.3544 68.961 12.4195C69.3161 13.4845 69.4633 14.6349 69.4024 15.8708H56.4987C56.6205 16.8254 56.9248 17.6797 57.4117 18.4333C57.9088 19.1868 58.5378 19.7845 59.2987 20.2267C60.0696 20.6587 60.9217 20.8799 61.855 20.8899C62.8694 20.8899 63.7823 20.6286 64.5939 20.1061C65.4156 19.5836 66.075 18.8651 66.5721 17.9508L68.7328 18.4482C68.1241 19.7846 67.2061 20.8799 65.9786 21.734C64.7512 22.578 63.3766 23 61.855 23C60.4551 23 59.1769 22.6433 58.0205 21.9299C56.8742 21.2165 55.9561 20.2619 55.2663 19.0662C54.5866 17.8604 54.2468 16.529 54.2468 15.0721C54.2468 13.9668 54.4446 12.9368 54.8402 11.9823C55.2359 11.0177 55.7785 10.1736 56.4683 9.45017C57.1683 8.71667 57.9799 8.14395 58.903 7.73198C59.8261 7.32002 60.8102 7.11402 61.855 7.11402ZM61.855 9.02816C60.9116 9.02816 60.0493 9.25935 59.2682 9.72155C58.4871 10.1737 57.8479 10.7917 57.3509 11.5754C56.8538 12.3491 56.5495 13.2133 56.4379 14.1678H67.2568C67.1858 13.2334 66.8968 12.3792 66.3896 11.6056C65.8925 10.8218 65.2483 10.1987 64.4571 9.7365C63.6659 9.26425 62.7984 9.02816 61.855 9.02816Z" fill="#141513"/>
<path fill-rule="evenodd" clip-rule="evenodd" d="M84.2636 7.11402C85.3897 7.11403 86.4243 7.33518 87.3677 7.77729C88.3213 8.2194 89.1381 8.83737 89.8177 9.63117C90.5075 10.4249 91.0248 11.3544 91.3697 12.4195C91.7247 13.4845 91.8719 14.6349 91.8111 15.8708H78.9074C79.0291 16.8254 79.3334 17.6797 79.8203 18.4333C80.3174 19.1868 80.9465 19.7845 81.7073 20.2267C82.4783 20.6587 83.3304 20.8799 84.2636 20.8899C85.278 20.8899 86.191 20.6286 87.0025 20.1061C87.8242 19.5836 88.4836 18.8651 88.9807 17.9508L91.1414 18.4482C90.5328 19.7846 89.6147 20.8799 88.3873 21.734C87.1598 22.578 85.7853 23 84.2636 23C82.8638 23 81.5855 22.6433 80.4291 21.9299C79.2828 21.2165 78.3647 20.2619 77.6749 19.0662C76.9953 17.8604 76.6554 16.529 76.6554 15.0721C76.6554 13.9668 76.8532 12.9368 77.2489 11.9823C77.6445 11.0177 78.1872 10.1736 78.877 9.45017C79.5769 8.71667 80.3885 8.14395 81.3116 7.73198C82.2348 7.32002 83.2188 7.11402 84.2636 7.11402ZM84.2636 9.02816C83.3202 9.02816 82.458 9.25935 81.6769 9.72155C80.8958 10.1737 80.2566 10.7917 79.7595 11.5754C79.2625 12.3491 78.9581 13.2133 78.8465 14.1678H89.6654C89.5944 13.2334 89.3054 12.3792 88.7982 11.6056C88.3012 10.8218 87.657 10.1987 86.8657 9.7365C86.0745 9.26425 85.2071 9.02816 84.2636 9.02816Z" fill="#141513"/>
<path d="M117.134 7.11402C118.371 7.11403 119.518 7.4005 120.573 7.97323C121.638 8.54597 122.515 9.31466 123.205 10.2793L121.303 11.2889C120.775 10.6257 120.141 10.1183 119.401 9.76663C118.66 9.4049 117.905 9.22411 117.134 9.2241C116.109 9.2241 115.181 9.49543 114.349 10.038C113.517 10.5706 112.858 11.279 112.371 12.1633C111.894 13.0475 111.656 14.0171 111.656 15.0721C111.656 16.1271 111.899 17.0967 112.386 17.9809C112.883 18.8651 113.548 19.5736 114.379 20.1061C115.211 20.6286 116.129 20.8899 117.134 20.8899C117.965 20.8899 118.746 20.699 119.477 20.3173C120.207 19.9354 120.816 19.4378 121.303 18.8249L123.205 19.8499C122.515 20.8045 121.638 21.5681 120.573 22.1408C119.518 22.7135 118.371 23 117.134 23C115.734 23 114.456 22.6433 113.299 21.9299C112.153 21.2165 111.235 20.2619 110.545 19.0662C109.865 17.8604 109.525 16.529 109.525 15.0721C109.525 13.9668 109.723 12.9368 110.119 11.9823C110.514 11.0177 111.057 10.1736 111.747 9.45017C112.447 8.71667 113.258 8.14395 114.182 7.73198C115.105 7.32002 116.089 7.11402 117.134 7.11402Z" fill="#141513"/>
<path fill-rule="evenodd" clip-rule="evenodd" d="M132.439 7.11402C133.565 7.11403 134.6 7.33518 135.543 7.77729C136.497 8.2194 137.314 8.83737 137.993 9.63117C138.683 10.4249 139.2 11.3544 139.545 12.4195C139.9 13.4845 140.048 14.635 139.987 15.8708H127.083C127.205 16.8254 127.509 17.6797 127.996 18.4333C128.493 19.1868 129.122 19.7845 129.883 20.2267C130.654 20.6587 131.506 20.8799 132.439 20.8899C133.454 20.8899 134.367 20.6286 135.178 20.1061C136 19.5836 136.659 18.8651 137.156 17.9508L139.317 18.4482C138.708 19.7846 137.79 20.8799 136.563 21.734C135.335 22.578 133.961 23 132.439 23C131.039 23 129.761 22.6433 128.605 21.9299C127.458 21.2165 126.54 20.2619 125.851 19.0662C125.171 17.8604 124.831 16.529 124.831 15.0721C124.831 13.9668 125.029 12.9368 125.424 11.9823C125.82 11.0177 126.363 10.1736 127.053 9.45017C127.753 8.71667 128.564 8.14395 129.487 7.73198C130.41 7.32002 131.394 7.11402 132.439 7.11402ZM132.439 9.02816C131.496 9.02816 130.634 9.25935 129.852 9.72155C129.071 10.1737 128.432 10.7917 127.935 11.5754C127.438 12.3491 127.134 13.2133 127.022 14.1678H137.841C137.77 13.2334 137.481 12.3792 136.974 11.6056C136.477 10.8218 135.833 10.1987 135.041 9.7365C134.25 9.26425 133.383 9.02816 132.439 9.02816Z" fill="#141513"/>
<path fill-rule="evenodd" clip-rule="evenodd" d="M21.4163 7.07538C22.5423 7.07538 23.577 7.29656 24.5204 7.73865C25.4739 8.18076 26.2907 8.79874 26.9704 9.59253C27.6602 10.3863 28.1774 11.3158 28.5223 12.3808C28.8773 13.4459 29.0245 14.5963 28.9637 15.8322H16.0821C16.2038 16.7867 16.4863 17.641 16.9732 18.3946C17.4702 19.1482 18.0992 19.7459 18.8599 20.188C19.6309 20.6201 20.483 20.8412 21.4163 20.8513C22.4307 20.8513 23.3438 20.59 24.1554 20.0675C24.977 19.545 25.6363 18.8265 26.1333 17.9121L28.2941 18.4096C27.6854 19.746 26.7673 20.8412 25.5399 21.6953C24.3124 22.5393 22.9379 22.9614 21.4163 22.9614C20.0164 22.9614 18.7382 22.6047 17.5817 21.8913C16.4354 21.1778 15.5174 20.2232 14.8276 19.0275C14.1479 17.8218 13.808 16.4904 13.808 15.0334C13.808 13.9282 14.0059 12.8982 14.4015 11.9436C14.7971 10.979 15.3398 10.135 16.0296 9.41154C16.7295 8.67804 17.5412 8.10531 18.4643 7.69334C19.3874 7.28138 20.3714 7.07539 21.4163 7.07538ZM21.4163 8.98952C20.4729 8.98953 19.6106 9.22071 18.8295 9.68291C18.0484 10.1351 17.4092 10.7531 16.9121 11.5368C16.4151 12.3105 16.1108 13.1746 15.9992 14.1291H26.8181C26.7471 13.1947 26.458 12.3406 25.9509 11.5669C25.4538 10.7832 24.8096 10.1601 24.0184 9.69786C23.2271 9.22561 22.3597 8.98952 21.4163 8.98952Z" fill="#141513"/>
<path d="M47.0864 7.02364C48.324 7.02364 49.4501 7.28983 50.4645 7.82236C51.4891 8.35491 52.2295 9.0634 52.686 9.94762L50.9667 10.9575C50.7841 10.5455 50.4949 10.1888 50.0993 9.88737C49.7036 9.58593 49.2521 9.34961 48.7449 9.1788C48.2479 9.00801 47.7407 8.9177 47.2234 8.90765C46.5742 8.8976 45.9705 8.99301 45.4126 9.19397C44.8547 9.38489 44.4032 9.67136 44.0583 10.0532C43.7236 10.435 43.5563 10.9021 43.5563 11.4547C43.5563 12.0073 43.7236 12.4294 44.0583 12.7207C44.393 13.0021 44.8445 13.2333 45.4126 13.4141C45.9908 13.585 46.6402 13.7858 47.3604 14.0169C48.2835 14.3083 49.1507 14.6401 49.9623 15.0118C50.7738 15.3836 51.4283 15.8457 51.9254 16.3984C52.4224 16.951 52.6658 17.6495 52.6556 18.4935C52.6556 19.3978 52.3817 20.1866 51.8339 20.8598C51.2861 21.533 50.576 22.0504 49.7036 22.4122C48.8312 22.7638 47.898 22.9246 46.9039 22.8944C46.0721 22.8743 45.2605 22.7236 44.4692 22.4423C43.678 22.1609 42.9881 21.7791 42.3998 21.2968C41.8114 20.8145 41.3903 20.2669 41.1367 19.654L42.9779 18.8702C43.1402 19.2621 43.4396 19.6239 43.8758 19.9555C44.3221 20.277 44.8294 20.5383 45.3975 20.7393C45.9655 20.9302 46.5285 21.0256 47.0864 21.0256C47.7052 21.0256 48.2834 20.9251 48.8211 20.7241C49.3587 20.5231 49.7949 20.2367 50.1297 19.8649C50.4745 19.4831 50.647 19.0361 50.647 18.5236C50.647 17.971 50.4644 17.5389 50.0993 17.2275C49.7341 16.9059 49.2724 16.6547 48.7145 16.4738C48.1566 16.2829 47.5835 16.1021 46.9952 15.9313C45.9199 15.6399 44.9714 15.3182 44.1497 14.9665C43.3281 14.6149 42.6839 14.1678 42.2173 13.6253C41.7608 13.0726 41.5323 12.3641 41.5323 11.5C41.5323 10.5856 41.7912 10.5856 41.7912 10.5856C41.7912 10.5856 41.7912 9.79689 42.3085 9.13372C42.836 8.46052 43.5207 7.94307 44.3627 7.58134C45.2148 7.20957 46.1227 7.02364 47.0864 7.02364Z" fill="#141513"/>
<path d="M6.81695 1.53076C7.95307 1.53076 8.97766 1.80702 9.89062 2.35961C10.8036 2.9022 11.529 3.64081 12.0667 4.57525C12.6144 5.49966 12.8883 6.53968 12.8884 7.69518C12.8884 8.86072 12.6095 9.9108 12.0516 10.8452C11.5038 11.7797 10.7682 12.5183 9.84511 13.0609C8.93212 13.6035 7.92268 13.8748 6.81695 13.8748H2.1303V22.6316H0V11.7751H3.40476V11.7647H6.64955C7.40023 11.7647 8.08512 11.5839 8.70392 11.2222C9.33282 10.8504 9.82983 10.353 10.195 9.73006C10.5704 9.09703 10.7581 8.38342 10.7581 7.58962C10.758 6.79587 10.5703 6.08754 10.195 5.46459C9.82983 4.83159 9.33282 4.3342 8.70392 3.97247C8.08512 3.60069 7.48404 3.32047 6.73336 3.32047H3.40476V3.29702H0V1.53076H6.81695Z" fill="#141513"/>
<path d="M38.5778 7.11402C39.1661 7.11402 39.7342 7.18938 40.282 7.34009L39.4148 9.43522C38.9888 9.30461 38.5728 9.23929 38.167 9.23928C37.3454 9.23928 36.5896 9.44015 35.8997 9.84206C35.2201 10.244 34.6772 10.7815 34.2714 11.4547C33.8657 12.1279 33.6629 12.8765 33.6629 13.7005V22.6081H31.5326V7.53604H33.6629V9.61599C34.2005 8.85234 34.9005 8.2444 35.7628 7.79224C36.625 7.34008 37.5634 7.11403 38.5778 7.11402Z" fill="#141513"/>
<path d="M74.0222 22.6081H71.8919V0H74.0222V22.6081Z" fill="#141513"/>
<path d="M101.465 7.11402C102.611 7.11402 103.656 7.39023 104.599 7.94287C105.543 8.49552 106.293 9.23923 106.851 10.1737C107.409 11.1081 107.688 12.1431 107.688 13.2784V22.6081H105.558V13.7005C105.558 12.8765 105.355 12.1279 104.949 11.4547C104.543 10.7815 104.001 10.244 103.321 9.84206C102.642 9.44015 101.886 9.23929 101.054 9.23928C100.232 9.23928 99.4764 9.44015 98.7866 9.84206C98.1069 10.244 97.564 10.7815 97.1583 11.4547C96.7525 12.1279 96.5497 12.8765 96.5497 13.7005V22.6081H94.4194V7.53604H96.5497V9.61599C97.0874 8.85234 97.7873 8.2444 98.6496 7.79224C99.5118 7.34008 100.45 7.11403 101.465 7.11402Z" fill="#141513"/>
</svg>
