<svg width="20" height="21" viewBox="0 0 20 21" fill="none" xmlns="http://www.w3.org/2000/svg">
<path d="M10.1885 0C14.771 0.00019502 18.6464 3.02494 19.9268 7.18555C20.0168 7.47506 20.1294 7.96298 19.5479 8.39258C18.9434 8.83672 18.245 9.13722 17.5068 9.27051C17.6155 9.87834 17.6155 10.5015 17.5068 11.1094C17.1762 11.0468 16.8404 11.0151 16.5039 11.0156C12.9518 11.0156 13.1349 13.4119 10.7852 13.4121H9.91113C8.29905 13.412 7.23744 12.2606 7.2373 10.7852V9.58691C7.23732 8.1114 8.29896 6.96002 9.91113 6.95996H10.7891C13.1391 6.95996 12.9559 9.35696 16.5039 9.36035C16.8435 9.36034 17.1772 9.32885 17.5049 9.2666C17.5032 9.2627 17.5024 9.25879 17.5029 9.25488C17.4392 8.90114 17.3403 8.55453 17.207 8.2207C17.8159 8.12523 18.3934 7.88689 18.8926 7.52539C18.8924 7.52204 18.8889 7.51498 18.8887 7.51074C18.6074 6.59122 18.1801 5.72195 17.624 4.9375C17.0729 4.16217 16.4057 3.47622 15.6455 2.9043C14.0728 1.72093 12.1566 1.0833 10.1885 1.08887C8.95912 1.08887 7.76424 1.32742 6.64355 1.80371C5.56287 2.26469 4.58634 2.91956 3.75098 3.75488C2.9156 4.59026 2.25572 5.5625 1.7998 6.64746C1.3264 7.76915 1.08331 8.97489 1.08496 10.1924C1.08497 11.4217 1.32353 12.6165 1.7998 13.7363C2.25996 14.8179 2.91562 15.7935 3.75098 16.6289C4.58634 17.4642 5.55863 18.1234 6.64355 18.5801C7.76763 19.0521 8.95912 19.2949 10.1885 19.2949C12.1749 19.2948 14.0606 18.6664 15.6455 17.4805C16.4066 16.9093 17.074 16.2228 17.624 15.4463C18.1777 14.6604 18.6047 13.7915 18.8887 12.873C18.8889 12.8695 18.8924 12.8618 18.8926 12.8584C18.3934 12.4969 17.8159 12.2586 17.207 12.1631C17.3437 11.8278 17.441 11.4803 17.5029 11.1289C17.5071 11.1213 17.5068 11.1169 17.5068 11.1094C18.2448 11.2444 18.9426 11.545 19.5479 11.9883C20.1294 12.417 20.0168 12.9009 19.9268 13.1904C18.6464 17.3511 14.7711 20.3758 10.1885 20.376C4.56398 20.376 0.0002405 15.8129 0 10.1885C0 4.56383 4.55959 0 10.1885 0ZM11.2461 3.09082C12.1773 3.09127 13.0922 3.33685 13.8984 3.80273C14.7048 4.26875 15.3745 4.93933 15.8398 5.74609L16.875 7.53418C16.9997 7.74802 17.1049 7.97461 17.1982 8.20117C17.1982 8.20447 17.2019 8.20877 17.2021 8.21289C16.9698 8.24864 16.7351 8.26718 16.5 8.26758C14.9582 8.26758 14.3758 7.75263 13.7051 7.15918C13.0565 6.58529 12.2529 5.87118 10.7852 5.87109H9.91113C8.84908 5.87112 7.88455 6.25735 7.19434 6.95605C6.51863 7.63948 6.14747 8.57244 6.14746 9.58691V10.7852C6.14753 11.8004 6.5186 12.7335 7.19434 13.416C7.88455 14.1147 8.84908 14.5009 9.91113 14.501H10.7891C12.257 14.501 13.0612 13.7868 13.709 13.2129C14.3805 12.6161 14.9583 12.1042 16.5 12.1084C16.738 12.109 16.972 12.1275 17.2021 12.1631C17.202 12.1672 17.1982 12.1715 17.1982 12.1748C17.1068 12.4047 16.9988 12.6276 16.875 12.8418L15.8398 14.6299C15.3751 15.4372 14.7059 16.1081 13.8994 16.5742C13.0929 17.0403 12.1776 17.2856 11.2461 17.2852H9.18066C8.24942 17.2848 7.33468 17.0391 6.52832 16.5732C5.72176 16.1072 5.0514 15.4368 4.58594 14.6299L3.55176 12.8418C3.08593 12.0352 2.8409 11.12 2.84082 10.1885C2.84082 9.25682 3.08583 8.34096 3.55176 7.53418L4.58594 5.74609C5.05074 4.93863 5.72063 4.26787 6.52734 3.80176C7.33392 3.33574 8.24915 3.09031 9.18066 3.09082H11.2461Z" fill="#364153"/>
</svg>
